<svg width="252" height="737" viewBox="0 0 252 737" fill="none" xmlns="http://www.w3.org/2000/svg">
<path d="M131 697L131 66" stroke="url(#paint0_linear_3499_3109)"/>
<path opacity="0.5" d="M134.464 239C132.925 241.667 129.075 241.667 127.536 239L116.278 219.5C114.738 216.833 116.662 213.5 119.742 213.5L142.258 213.5C145.338 213.5 147.262 216.833 145.722 219.5L134.464 239Z" fill="#F3EBD5"/>
<path d="M132.97 236.49C132.2 237.823 130.275 237.823 129.506 236.49L119.417 219.015C118.647 217.682 119.609 216.015 121.149 216.015L141.326 216.015C142.866 216.015 143.828 217.682 143.059 219.015L132.97 236.49Z" fill="url(#paint1_radial_3499_3109)"/>
<path opacity="0.5" d="M134.464 383C132.925 385.667 129.075 385.667 127.536 383L116.278 363.5C114.738 360.833 116.662 357.5 119.742 357.5L142.258 357.5C145.338 357.5 147.262 360.833 145.722 363.5L134.464 383Z" fill="#F3EBD5"/>
<path d="M132.97 380.49C132.2 381.823 130.275 381.823 129.506 380.49L119.417 363.015C118.647 361.682 119.609 360.015 121.149 360.015L141.326 360.015C142.866 360.015 143.828 361.682 143.059 363.015L132.97 380.49Z" fill="url(#paint2_radial_3499_3109)"/>
<path opacity="0.5" d="M134.464 527C132.925 529.667 129.075 529.667 127.536 527L116.278 507.5C114.738 504.833 116.662 501.5 119.742 501.5L142.258 501.5C145.338 501.5 147.262 504.833 145.722 507.5L134.464 527Z" fill="#F3EBD5"/>
<path d="M132.97 524.49C132.2 525.823 130.275 525.823 129.506 524.49L119.417 507.015C118.647 505.682 119.609 504.015 121.149 504.015L141.326 504.015C142.866 504.015 143.828 505.682 143.059 507.015L132.97 524.49Z" fill="url(#paint3_radial_3499_3109)"/>
<g filter="url(#filter0_d_3499_3109)">
<rect width="242" height="77" rx="14" transform="matrix(-1 0 0 1 247 402)" fill="#FCFCFC"/>
</g>
<g filter="url(#filter1_d_3499_3109)">
<rect width="242" height="77" rx="14" transform="matrix(-1 0 0 1 247 114)" fill="#FCFCFC"/>
</g>
<path d="M87.966 451.984C86.814 451.984 85.764 451.78 84.816 451.372C83.868 450.964 83.118 450.37 82.566 449.59C82.014 448.822 81.738 447.916 81.738 446.872C81.738 445.072 82.434 443.572 83.826 442.372C85.23 441.172 87.18 440.35 89.676 439.906C88.884 439.354 88.23 438.958 87.714 438.718C87.21 438.478 86.718 438.358 86.238 438.358C85.782 438.358 85.374 438.484 85.014 438.736C84.666 438.988 84.396 439.27 84.204 439.582L82.692 438.484C83.616 436.684 84.816 435.784 86.292 435.784C86.976 435.784 87.642 435.946 88.29 436.27C88.95 436.582 89.826 437.134 90.918 437.926C91.506 438.346 91.962 438.658 92.286 438.862C92.61 439.054 92.958 439.216 93.33 439.348L93.024 441.922H92.574C92.91 442.186 93.432 442.318 94.14 442.318H94.446L94.59 443.668L94.446 445H94.14C93.168 445 92.352 444.742 91.692 444.226C91.044 443.698 90.612 442.99 90.396 442.102C89.088 442.282 87.942 442.6 86.958 443.056C85.986 443.512 85.224 444.04 84.672 444.64C84.12 445.24 83.796 445.864 83.7 446.512C83.652 447.04 83.826 447.514 84.222 447.934C84.63 448.366 85.2 448.702 85.932 448.942C86.664 449.194 87.486 449.32 88.398 449.32C89.238 449.32 90.03 449.23 90.774 449.05C91.518 448.87 92.106 448.696 92.538 448.528L93.51 450.58C91.878 451.516 90.03 451.984 87.966 451.984ZM96.0703 442.318C96.3823 441.73 96.7003 441.184 97.0243 440.68C97.0483 440.224 97.0603 439.834 97.0603 439.51C97.0603 438.37 96.9943 437.05 96.8623 435.55C96.7303 434.05 96.6043 432.928 96.4843 432.184L98.7343 431.68C98.8423 432.388 98.9383 433.336 99.0223 434.524C99.1183 435.712 99.1603 436.924 99.1483 438.16C100.384 437.056 101.614 436.504 102.838 436.504C103.522 436.504 104.14 436.654 104.692 436.954C105.244 437.242 105.676 437.65 105.988 438.178C106.3 438.706 106.456 439.3 106.456 439.96C106.456 440.836 106.216 441.628 105.736 442.336L107.176 442.318L107.32 443.668L107.176 445C105.964 445 104.986 444.976 104.242 444.928C103.498 444.868 102.892 444.748 102.424 444.568C101.488 444.856 100.432 445 99.2563 445H94.4683V442.318H96.0703ZM98.8063 442.372C99.8983 442.396 100.876 442.3 101.74 442.084C102.604 441.856 103.282 441.562 103.774 441.202C104.266 440.842 104.53 440.476 104.566 440.104C104.59 439.804 104.47 439.552 104.206 439.348C103.942 439.132 103.57 439.024 103.09 439.024C102.31 439.024 101.494 439.318 100.642 439.906C99.7903 440.482 98.9863 441.298 98.2303 442.354L98.8063 442.372ZM117.314 445C116.762 444.988 116.282 444.85 115.874 444.586C115.478 444.322 115.172 443.944 114.956 443.452C114.308 444.472 113.51 444.988 112.562 445H112.472C111.956 445 111.506 444.862 111.122 444.586C110.738 444.31 110.468 443.944 110.312 443.488C109.928 443.98 109.484 444.358 108.98 444.622C108.488 444.874 107.96 445 107.396 445H107.342L107.198 443.668L107.342 442.318H107.432C107.804 442.318 108.17 442.24 108.53 442.084C108.89 441.916 109.16 441.712 109.34 441.472C109.592 441.184 109.784 440.86 109.916 440.5C110.048 440.14 110.168 439.756 110.276 439.348L112.148 439.546C112.136 439.606 112.07 439.846 111.95 440.266C111.83 440.674 111.77 441.046 111.77 441.382C111.77 442.006 112.022 442.318 112.526 442.318H112.58C113.192 442.318 113.666 441.988 114.002 441.328C114.23 440.872 114.434 440.17 114.614 439.222L116.468 439.312C116.336 440.104 116.27 440.668 116.27 441.004C116.27 441.88 116.636 442.318 117.368 442.318C117.716 442.318 117.992 442.216 118.196 442.012C118.4 441.808 118.502 441.544 118.502 441.22C118.502 440.896 118.376 440.38 118.124 439.672C117.884 438.964 117.68 438.424 117.512 438.052L119.348 437.044C119.576 437.512 119.816 438.184 120.068 439.06C120.32 439.924 120.446 440.68 120.446 441.328C120.446 441.988 120.314 442.6 120.05 443.164C119.798 443.716 119.438 444.16 118.97 444.496C118.514 444.832 117.992 445 117.404 445H117.368H117.314ZM131.568 449.302C130.428 449.302 129.42 449.08 128.544 448.636C127.668 448.192 126.99 447.532 126.51 446.656C126.042 445.792 125.85 444.754 125.934 443.542C126.006 442.39 126.414 440.992 127.158 439.348L128.904 440.14C128.58 440.872 128.334 441.508 128.166 442.048C128.01 442.576 127.932 443.116 127.932 443.668C127.932 444.664 128.238 445.408 128.85 445.9C129.474 446.392 130.38 446.638 131.568 446.638C132.54 446.638 133.41 446.464 134.178 446.116C134.946 445.78 135.498 445.354 135.834 444.838C135.846 444.802 135.468 444.688 134.7 444.496L133.746 444.226C132.798 443.95 132.126 443.62 131.73 443.236C131.334 442.852 131.136 442.312 131.136 441.616C131.136 440.644 131.382 439.714 131.874 438.826C132.366 437.938 133.014 437.218 133.818 436.666C134.622 436.114 135.474 435.838 136.374 435.838C136.734 435.838 137.1 435.892 137.472 436C137.844 436.096 138.102 436.216 138.246 436.36L137.49 438.682C137.37 438.634 137.196 438.592 136.968 438.556C136.74 438.52 136.536 438.502 136.356 438.502C135.864 438.502 135.39 438.61 134.934 438.826C134.49 439.03 134.112 439.306 133.8 439.654C133.488 439.99 133.278 440.356 133.17 440.752C133.158 440.8 133.152 440.86 133.152 440.932C133.152 441.136 133.29 441.316 133.566 441.472C133.854 441.616 134.388 441.778 135.168 441.958C136.26 442.21 136.998 442.528 137.382 442.912C137.778 443.284 137.976 443.722 137.976 444.226C137.976 445.102 137.694 445.93 137.13 446.71C136.566 447.49 135.792 448.114 134.808 448.582C133.836 449.062 132.756 449.302 131.568 449.302ZM144.251 445C142.931 445 141.977 444.622 141.389 443.866C140.813 443.11 140.525 441.958 140.525 440.41C140.513 438.934 140.465 437.44 140.381 435.928C140.309 434.404 140.201 433.15 140.057 432.166L142.289 431.68C142.409 432.556 142.505 433.744 142.577 435.244C142.649 436.732 142.685 438.112 142.685 439.384V440.068C142.673 440.68 142.703 441.142 142.775 441.454C142.847 441.766 142.991 441.988 143.207 442.12C143.435 442.252 143.783 442.318 144.251 442.318H144.341L144.485 443.668L144.341 445H144.251ZM144.347 442.318H144.779C145.295 442.318 145.667 442.312 145.895 442.3C145.571 441.772 145.409 441.214 145.409 440.626C145.409 440.518 145.421 440.368 145.445 440.176C145.553 439.468 145.775 438.826 146.111 438.25C146.447 437.674 146.855 437.218 147.335 436.882C147.827 436.546 148.343 436.378 148.883 436.378C149.507 436.378 150.059 436.57 150.539 436.954C151.019 437.338 151.385 437.83 151.637 438.43C151.889 439.03 152.015 439.648 152.015 440.284C152.015 440.416 152.003 440.602 151.979 440.842C151.907 441.358 151.757 441.85 151.529 442.318H153.041L153.185 443.668L153.041 445H151.961C150.833 445 149.777 444.826 148.793 444.478C147.749 444.826 146.411 445 144.779 445H144.347V442.318ZM147.317 440.338C147.341 440.614 147.467 440.89 147.695 441.166C147.935 441.442 148.265 441.676 148.685 441.868C149.357 441.616 149.825 441.184 150.089 440.572L150.107 440.374C150.107 440.002 149.987 439.66 149.747 439.348C149.507 439.024 149.183 438.862 148.775 438.862C148.403 438.862 148.079 439.012 147.803 439.312C147.527 439.612 147.365 439.954 147.317 440.338ZM147.299 432.328L148.811 433.84L147.299 435.37L146.795 434.866L145.769 433.84L147.299 432.328ZM150.467 432.328L151.979 433.84L150.467 435.37L149.963 434.866L148.937 433.84L150.467 432.328ZM152.893 443.668L153.037 442.318H154.621C155.809 442.318 156.649 442.216 157.141 442.012C157.633 441.808 157.879 441.496 157.879 441.076C157.867 440.812 157.729 440.308 157.465 439.564C157.201 438.808 157.009 438.304 156.889 438.052L158.797 437.008C159.037 437.512 159.277 438.184 159.517 439.024C159.757 439.852 159.877 440.578 159.877 441.202C159.865 442.426 159.451 443.368 158.635 444.028C157.819 444.676 156.613 445 155.017 445H153.037L152.893 443.668ZM155.431 433.3L156.943 434.812L155.431 436.342L154.927 435.838L153.901 434.812L155.431 433.3ZM158.599 433.3L160.111 434.812L158.599 436.342L158.095 435.838L157.069 434.812L158.599 433.3ZM159.232 447.988C160.024 447.664 160.75 447.286 161.41 446.854C162.07 446.434 162.586 446.014 162.958 445.594C163.342 445.174 163.534 444.814 163.534 444.514C163.534 444.022 163.216 442.684 162.58 440.5L162.49 440.14L164.506 439.348C164.794 440.176 165.022 441.064 165.19 442.012C165.358 442.948 165.442 443.782 165.442 444.514C165.442 445.69 164.98 446.776 164.056 447.772C163.132 448.78 161.89 449.608 160.33 450.256L159.232 447.988ZM167.526 444.892C167.646 444.1 167.706 442.876 167.706 441.22C167.706 439.564 167.652 437.83 167.544 436.018C167.448 434.194 167.334 432.916 167.202 432.184L169.452 431.662C169.56 432.358 169.656 433.576 169.74 435.316C169.824 437.056 169.866 438.766 169.866 440.446C169.866 442.522 169.794 444.082 169.65 445.126L167.526 444.892Z" fill="black"/>
<path d="M59.152 164.056C58.84 160.732 58.684 158.08 58.684 156.1C58.684 155.548 58.69 155.152 58.702 154.912C58.726 154.228 58.948 153.67 59.368 153.238C59.8 152.794 60.334 152.572 60.97 152.572C61.066 152.572 61.21 152.584 61.402 152.608C61.87 151.564 62.416 150.748 63.04 150.16C63.676 149.572 64.336 149.278 65.02 149.278C65.668 149.278 66.238 149.488 66.73 149.908C67.222 150.316 67.594 150.85 67.846 151.51C68.11 152.158 68.242 152.842 68.242 153.562C68.242 154.27 68.11 154.918 67.846 155.506C67.594 156.094 67.216 156.538 66.712 156.838C66.436 157.006 66.112 157.09 65.74 157.09C65.272 157.09 64.666 156.952 63.922 156.676C63.178 156.388 62.236 155.932 61.096 155.308C61.072 155.296 61.042 155.29 61.006 155.29C60.922 155.29 60.874 155.338 60.862 155.434C60.838 156.898 60.994 159.388 61.33 162.904L61.384 163.552L59.152 164.056ZM63.22 153.508C64.444 154.264 65.308 154.642 65.812 154.642C65.92 154.642 65.998 154.624 66.046 154.588C66.166 154.504 66.256 154.384 66.316 154.228C66.388 154.06 66.424 153.868 66.424 153.652C66.424 153.172 66.292 152.728 66.028 152.32C65.764 151.9 65.422 151.69 65.002 151.69C64.474 151.69 63.88 152.296 63.22 153.508ZM69.6562 159.934C71.3002 159.574 72.5782 159.16 73.4902 158.692C74.4022 158.236 75.0022 157.678 75.2902 157.018C73.9702 156.994 72.9022 156.862 72.0862 156.622C71.2702 156.37 70.7002 155.896 70.3762 155.2C70.1602 154.732 70.0522 154.216 70.0522 153.652C70.0522 152.944 70.2022 152.242 70.5022 151.546C70.8022 150.838 71.2162 150.262 71.7442 149.818C72.2722 149.362 72.8482 149.134 73.4722 149.134C74.0962 149.134 74.6722 149.368 75.2002 149.836C75.7282 150.304 76.1662 150.934 76.5142 151.726C76.8742 152.518 77.1142 153.382 77.2342 154.318H77.9902L78.1342 155.668L77.9902 157H77.1802C76.8802 158.332 76.1482 159.454 74.9842 160.366C73.8322 161.278 72.3322 161.908 70.4842 162.256L69.6562 159.934ZM72.0322 153.688C72.2002 153.916 72.5662 154.078 73.1302 154.174C73.6942 154.258 74.4262 154.306 75.3262 154.318C75.1582 153.526 74.8882 152.866 74.5162 152.338C74.1442 151.798 73.7242 151.528 73.2562 151.528C73.0162 151.528 72.7882 151.618 72.5722 151.798C72.3682 151.966 72.2062 152.182 72.0862 152.446C71.9662 152.71 71.9062 152.962 71.9062 153.202C71.9062 153.406 71.9482 153.568 72.0322 153.688ZM77.9601 154.318H78.0861C79.1661 154.318 79.9701 154.264 80.4981 154.156C81.0261 154.036 81.3741 153.862 81.5421 153.634C81.7101 153.406 81.7941 153.076 81.7941 152.644C81.7941 152.296 81.7341 151.726 81.6141 150.934L83.4681 150.574C83.6361 151.45 83.7201 152.44 83.7201 153.544C83.7681 153.748 83.9001 153.928 84.1161 154.084C84.3321 154.24 84.6441 154.318 85.0521 154.318H85.1601L85.3041 155.668L85.1601 157H85.0521C84.5721 157 84.1281 156.886 83.7201 156.658C83.3121 156.43 82.9641 156.13 82.6761 155.758C82.3281 156.202 81.8001 156.52 81.0921 156.712C80.3841 156.904 79.3821 157 78.0861 157H77.9601V154.318ZM79.3821 146.272L80.8941 147.784L79.3821 149.314L78.8781 148.81L77.8521 147.784L79.3821 146.272ZM82.5501 146.272L84.0621 147.784L82.5501 149.314L82.0461 148.81L81.0201 147.784L82.5501 146.272ZM85.1727 154.318H86.1267C86.9907 154.318 87.6087 154.222 87.9807 154.03C88.3647 153.838 88.5567 153.55 88.5567 153.166C88.5567 152.914 88.4307 152.422 88.1787 151.69C87.9267 150.946 87.7287 150.4 87.5847 150.052L89.4747 149.008C89.7027 149.512 89.9367 150.19 90.1767 151.042C90.4287 151.882 90.5547 152.62 90.5547 153.256C90.5547 154.48 90.1707 155.41 89.4027 156.046C88.6467 156.682 87.5547 157 86.1267 157H85.1727V154.318ZM87.9267 144.976C88.2987 145.336 88.6647 145.702 89.0247 146.074L89.5827 146.632L87.9267 148.288L86.2527 146.632L87.9267 144.976ZM92.994 156.892C93.066 156.292 93.102 155.302 93.102 153.922C93.102 152.494 93.054 150.976 92.958 149.368C92.874 147.76 92.778 146.572 92.67 145.804L94.92 145.3C95.004 146.056 95.082 147.19 95.154 148.702C95.238 150.214 95.28 151.696 95.28 153.148C95.28 154.696 95.226 156.022 95.118 157.126L92.994 156.892ZM90.708 144.058C90.948 143.53 91.242 143.122 91.59 142.834C91.926 142.534 92.298 142.384 92.706 142.384C92.91 142.384 93.09 142.414 93.246 142.474C93.414 142.522 93.612 142.594 93.84 142.69C94.224 142.87 94.53 142.96 94.758 142.96C94.962 142.96 95.166 142.9 95.37 142.78C95.586 142.648 95.766 142.48 95.91 142.276L96.72 142.96C96.456 143.368 96.156 143.686 95.82 143.914C95.484 144.13 95.13 144.238 94.758 144.238C94.554 144.238 94.368 144.214 94.2 144.166C94.044 144.106 93.834 144.022 93.57 143.914C93.21 143.734 92.928 143.644 92.724 143.644C92.496 143.644 92.28 143.728 92.076 143.896C91.872 144.052 91.71 144.28 91.59 144.58L90.708 144.058ZM97.5045 159.934C99.1485 159.574 100.426 159.16 101.338 158.692C102.25 158.236 102.85 157.678 103.138 157.018C101.818 156.994 100.75 156.862 99.9345 156.622C99.1185 156.37 98.5485 155.896 98.2245 155.2C98.0085 154.732 97.9005 154.216 97.9005 153.652C97.9005 152.944 98.0505 152.242 98.3505 151.546C98.6505 150.838 99.0645 150.262 99.5925 149.818C100.12 149.362 100.696 149.134 101.32 149.134C101.944 149.134 102.52 149.368 103.048 149.836C103.576 150.304 104.014 150.934 104.362 151.726C104.722 152.518 104.962 153.382 105.082 154.318H105.838L105.982 155.668L105.838 157H105.028C104.728 158.332 103.996 159.454 102.832 160.366C101.68 161.278 100.18 161.908 98.3325 162.256L97.5045 159.934ZM99.8805 153.688C100.048 153.916 100.414 154.078 100.978 154.174C101.542 154.258 102.274 154.306 103.174 154.318C103.006 153.526 102.736 152.866 102.364 152.338C101.992 151.798 101.572 151.528 101.104 151.528C100.864 151.528 100.636 151.618 100.42 151.798C100.216 151.966 100.054 152.182 99.9345 152.446C99.8145 152.71 99.7545 152.962 99.7545 153.202C99.7545 153.406 99.7965 153.568 99.8805 153.688ZM105.808 154.318H106.42C107.44 154.318 108.286 154.24 108.958 154.084C109.63 153.916 110.074 153.694 110.29 153.418C110.194 152.842 109.84 152.158 109.228 151.366C108.616 150.574 107.716 149.698 106.528 148.738L106.78 146.398L113.458 143.59L114.178 145.732L108.976 147.946C109.372 148.282 109.822 148.744 110.326 149.332C110.842 149.908 111.298 150.562 111.694 151.294C112.102 152.026 112.306 152.734 112.306 153.418C112.306 153.622 112.276 153.856 112.216 154.12C111.976 155.092 111.34 155.818 110.308 156.298C109.276 156.766 107.98 157 106.42 157H105.808V154.318ZM115.929 159.988C116.721 159.664 117.447 159.286 118.107 158.854C118.767 158.434 119.283 158.014 119.655 157.594C120.039 157.174 120.231 156.814 120.231 156.514C120.231 156.022 119.913 154.684 119.277 152.5L119.187 152.14L121.203 151.348C121.491 152.176 121.719 153.064 121.887 154.012C122.055 154.948 122.139 155.782 122.139 156.514C122.139 157.69 121.677 158.776 120.753 159.772C119.829 160.78 118.587 161.608 117.027 162.256L115.929 159.988ZM127.733 157.09C126.689 157.09 125.819 156.934 125.123 156.622C124.427 156.298 123.887 155.974 123.503 155.65L124.475 153.76C124.907 153.976 125.351 154.162 125.807 154.318C126.263 154.474 126.821 154.552 127.481 154.552C128.129 154.54 128.657 154.468 129.065 154.336C129.485 154.192 129.761 154.036 129.893 153.868C129.905 153.844 129.911 153.796 129.911 153.724C129.911 153.472 129.797 153.142 129.569 152.734C129.353 152.314 128.963 151.822 128.399 151.258C127.847 150.682 127.103 150.076 126.167 149.44L127.463 147.082C128.855 148.066 129.953 149.14 130.757 150.304C131.573 151.468 131.981 152.578 131.981 153.634C131.981 154.138 131.885 154.6 131.693 155.02C131.405 155.692 130.895 156.208 130.163 156.568C129.431 156.916 128.621 157.09 127.733 157.09ZM137.822 164.056C137.51 160.732 137.354 158.08 137.354 156.1C137.354 155.548 137.36 155.152 137.372 154.912C137.396 154.228 137.618 153.67 138.038 153.238C138.47 152.794 139.004 152.572 139.64 152.572C139.736 152.572 139.88 152.584 140.072 152.608C140.54 151.564 141.086 150.748 141.71 150.16C142.346 149.572 143.006 149.278 143.69 149.278C144.338 149.278 144.908 149.488 145.4 149.908C145.892 150.316 146.264 150.85 146.516 151.51C146.78 152.158 146.912 152.842 146.912 153.562C146.912 154.27 146.78 154.918 146.516 155.506C146.264 156.094 145.886 156.538 145.382 156.838C145.106 157.006 144.782 157.09 144.41 157.09C143.942 157.09 143.336 156.952 142.592 156.676C141.848 156.388 140.906 155.932 139.766 155.308C139.742 155.296 139.712 155.29 139.676 155.29C139.592 155.29 139.544 155.338 139.532 155.434C139.508 156.898 139.664 159.388 140 162.904L140.054 163.552L137.822 164.056ZM141.89 153.508C143.114 154.264 143.978 154.642 144.482 154.642C144.59 154.642 144.668 154.624 144.716 154.588C144.836 154.504 144.926 154.384 144.986 154.228C145.058 154.06 145.094 153.868 145.094 153.652C145.094 153.172 144.962 152.728 144.698 152.32C144.434 151.9 144.092 151.69 143.672 151.69C143.144 151.69 142.55 152.296 141.89 153.508ZM152.754 157C151.434 157 150.48 156.622 149.892 155.866C149.316 155.11 149.028 153.958 149.028 152.41C149.016 150.934 148.968 149.44 148.884 147.928C148.812 146.404 148.704 145.15 148.56 144.166L150.792 143.68C150.912 144.556 151.008 145.744 151.08 147.244C151.152 148.732 151.188 150.112 151.188 151.384V152.068C151.176 152.68 151.206 153.142 151.278 153.454C151.35 153.766 151.494 153.988 151.71 154.12C151.938 154.252 152.286 154.318 152.754 154.318H152.844L152.988 155.668L152.844 157H152.754ZM152.869 154.318H153.823C154.687 154.318 155.305 154.222 155.677 154.03C156.061 153.838 156.253 153.55 156.253 153.166C156.253 152.914 156.127 152.422 155.875 151.69C155.623 150.946 155.425 150.4 155.281 150.052L157.171 149.008C157.399 149.512 157.633 150.19 157.873 151.042C158.125 151.882 158.251 152.62 158.251 153.256C158.251 154.48 157.867 155.41 157.099 156.046C156.343 156.682 155.251 157 153.823 157H152.869V154.318ZM155.623 144.976C155.995 145.336 156.361 145.702 156.721 146.074L157.279 146.632L155.623 148.288L153.949 146.632L155.623 144.976ZM170.799 157.216C168.675 157.216 167.007 156.886 165.795 156.226C164.583 155.566 163.923 154.648 163.815 153.472C163.803 153.376 163.797 153.232 163.797 153.04C163.797 152.524 163.869 151.966 164.013 151.366C164.157 150.766 164.331 150.232 164.535 149.764L166.263 150.592C165.915 151.684 165.759 152.47 165.795 152.95C165.879 153.406 166.359 153.784 167.235 154.084C168.111 154.372 169.311 154.522 170.835 154.534C172.383 154.522 173.583 154.42 174.435 154.228C175.299 154.024 175.953 153.7 176.397 153.256C176.853 152.812 177.237 152.17 177.549 151.33L179.421 151.546C179.193 152.218 179.079 152.764 179.079 153.184C179.079 153.94 179.475 154.318 180.267 154.318L180.411 155.65L180.267 157C179.595 157 179.001 156.802 178.485 156.406C177.981 156.01 177.675 155.5 177.567 154.876C176.823 155.752 175.911 156.364 174.831 156.712C173.763 157.048 172.419 157.216 170.799 157.216ZM169.845 147.91L171.357 149.422L169.845 150.952L169.341 150.448L168.315 149.422L169.845 147.91ZM173.013 147.91L174.525 149.422L173.013 150.952L172.509 150.448L171.483 149.422L173.013 147.91ZM186.446 157C185.342 157 184.508 156.61 183.944 155.83C183.212 156.61 182.036 157 180.416 157H180.29V154.318H180.398C181.934 154.318 182.846 154.03 183.134 153.454L182.612 151.078L184.412 150.466C184.676 151.57 184.898 152.47 185.078 153.166C185.198 153.574 185.366 153.868 185.582 154.048C185.798 154.228 186.086 154.318 186.446 154.318H186.536L186.68 155.668L186.536 157H186.446ZM181.46 158.404C181.832 158.764 182.198 159.13 182.558 159.502L183.116 160.06L181.46 161.716L179.786 160.06L181.46 158.404ZM186.553 154.318H187.417C188.605 154.318 189.445 154.216 189.937 154.012C190.429 153.808 190.675 153.496 190.675 153.076C190.663 152.812 190.525 152.308 190.261 151.564C189.997 150.808 189.805 150.304 189.685 150.052L191.593 149.008C191.833 149.512 192.073 150.184 192.313 151.024C192.553 151.852 192.673 152.578 192.673 153.202C192.661 154.426 192.247 155.368 191.431 156.028C190.615 156.676 189.409 157 187.813 157H186.553V154.318ZM188.209 145.39L189.649 146.812L188.209 148.27C188.101 148.138 187.741 147.772 187.129 147.172C187.129 147.172 187.009 147.052 186.769 146.812L188.209 145.39ZM189.901 143.428L191.161 144.688L189.901 145.966C189.901 145.966 189.619 145.684 189.055 145.12L188.623 144.688L189.901 143.428ZM191.611 145.39L193.033 146.812C193.033 146.812 192.841 147.004 192.457 147.388L191.611 148.27C191.611 148.27 191.287 147.946 190.639 147.298L190.153 146.812L191.611 145.39Z" fill="black"/>
<g filter="url(#filter2_d_3499_3109)">
<rect width="242" height="77" rx="14" transform="matrix(-1 0 0 1 247 546)" fill="#FCFCFC"/>
</g>
<g filter="url(#filter3_d_3499_3109)">
<rect width="242" height="77" rx="14" transform="matrix(-1 0 0 1 247 257)" fill="#FCFCFC"/>
</g>
<path d="M82 303.988C82.792 303.664 83.518 303.286 84.178 302.854C84.838 302.434 85.354 302.014 85.726 301.594C86.11 301.174 86.302 300.814 86.302 300.514C86.302 300.022 85.984 298.684 85.348 296.5L85.258 296.14L87.274 295.348C87.562 296.176 87.79 297.064 87.958 298.012C88.126 298.948 88.21 299.782 88.21 300.514C88.21 301.69 87.748 302.776 86.824 303.772C85.9 304.78 84.658 305.608 83.098 306.256L82 303.988ZM85.978 290.398C86.35 290.758 86.716 291.124 87.076 291.496L87.634 292.054L85.978 293.71L84.304 292.054L85.978 290.398ZM94.1643 301C92.8443 301 91.8903 300.622 91.3023 299.866C90.7263 299.11 90.4383 297.958 90.4383 296.41C90.4263 294.934 90.3783 293.44 90.2943 291.928C90.2223 290.404 90.1143 289.15 89.9703 288.166L92.2023 287.68C92.3223 288.556 92.4183 289.744 92.4903 291.244C92.5623 292.732 92.5983 294.112 92.5983 295.384V296.068C92.5863 296.68 92.6163 297.142 92.6883 297.454C92.7603 297.766 92.9043 297.988 93.1203 298.12C93.3483 298.252 93.6963 298.318 94.1643 298.318H94.2543L94.3983 299.668L94.2543 301H94.1643ZM94.2785 298.318H94.4045C95.4845 298.318 96.2885 298.264 96.8165 298.156C97.3445 298.036 97.6925 297.862 97.8605 297.634C98.0285 297.406 98.1125 297.076 98.1125 296.644C98.1125 296.296 98.0525 295.726 97.9325 294.934L99.7865 294.574C99.9545 295.45 100.038 296.44 100.038 297.544C100.086 297.748 100.218 297.928 100.434 298.084C100.65 298.24 100.962 298.318 101.37 298.318H101.478L101.622 299.668L101.478 301H101.37C100.89 301 100.446 300.886 100.038 300.658C99.6305 300.43 99.2825 300.13 98.9945 299.758C98.6465 300.202 98.1185 300.52 97.4105 300.712C96.7025 300.904 95.7005 301 94.4045 301H94.2785V298.318ZM97.4285 305.554L95.9165 304.042L97.4285 302.512L97.9325 303.016L98.9585 304.042L97.4285 305.554ZM94.2605 302.512L94.7645 303.016L95.7905 304.042L94.2605 305.554L92.7485 304.042L94.2605 302.512ZM101.491 298.318H101.617C102.697 298.318 103.501 298.264 104.029 298.156C104.557 298.036 104.905 297.862 105.073 297.634C105.241 297.406 105.325 297.076 105.325 296.644C105.325 296.296 105.265 295.726 105.145 294.934L106.999 294.574C107.167 295.45 107.251 296.44 107.251 297.544C107.299 297.748 107.431 297.928 107.647 298.084C107.863 298.24 108.175 298.318 108.583 298.318H108.691L108.835 299.668L108.691 301H108.583C108.103 301 107.659 300.886 107.251 300.658C106.843 300.43 106.495 300.13 106.207 299.758C105.859 300.202 105.331 300.52 104.623 300.712C103.915 300.904 102.913 301 101.617 301H101.491V298.318ZM102.913 290.272L104.425 291.784L102.913 293.314L102.409 292.81L101.383 291.784L102.913 290.272ZM106.081 290.272L107.593 291.784L106.081 293.314L105.577 292.81L104.551 291.784L106.081 290.272ZM108.758 298.318H109.082C110.018 298.318 110.786 297.754 111.386 296.626C111.986 295.51 112.562 294.676 113.114 294.124C113.666 293.56 114.284 293.278 114.968 293.278C115.616 293.278 116.186 293.488 116.678 293.908C117.17 294.316 117.542 294.85 117.794 295.51C118.058 296.158 118.19 296.842 118.19 297.562C118.19 298.258 118.058 298.906 117.794 299.506C117.53 300.094 117.146 300.538 116.642 300.838C116.378 301.006 116.054 301.09 115.67 301.09C114.746 301.09 113.522 300.61 111.998 299.65C111.254 300.55 110.27 301 109.046 301H108.704L108.758 298.318ZM113.15 297.526C113.714 297.874 114.224 298.15 114.68 298.354C115.136 298.546 115.484 298.642 115.724 298.642C115.844 298.642 115.928 298.624 115.976 298.588C116.096 298.504 116.186 298.384 116.246 298.228C116.318 298.06 116.354 297.868 116.354 297.652C116.354 297.172 116.222 296.728 115.958 296.32C115.694 295.9 115.346 295.69 114.914 295.69C114.374 295.69 113.786 296.302 113.15 297.526ZM120.252 300.892C120.372 300.1 120.432 298.876 120.432 297.22C120.432 295.564 120.378 293.83 120.27 292.018C120.174 290.194 120.06 288.916 119.928 288.184L122.178 287.662C122.286 288.358 122.382 289.576 122.466 291.316C122.55 293.056 122.592 294.766 122.592 296.446C122.592 298.522 122.52 300.082 122.376 301.126L120.252 300.892ZM135.341 301.216C133.217 301.216 131.549 300.886 130.337 300.226C129.125 299.566 128.465 298.648 128.357 297.472C128.345 297.376 128.339 297.232 128.339 297.04C128.339 296.524 128.411 295.966 128.555 295.366C128.699 294.766 128.873 294.232 129.077 293.764L130.805 294.592C130.457 295.684 130.301 296.47 130.337 296.95C130.421 297.406 130.901 297.784 131.777 298.084C132.653 298.372 133.853 298.522 135.377 298.534C136.925 298.522 138.125 298.42 138.977 298.228C139.841 298.024 140.495 297.7 140.939 297.256C141.395 296.812 141.779 296.17 142.091 295.33L143.963 295.546C143.735 296.218 143.621 296.764 143.621 297.184C143.621 297.94 144.017 298.318 144.809 298.318L144.953 299.65L144.809 301C144.137 301 143.543 300.802 143.027 300.406C142.523 300.01 142.217 299.5 142.109 298.876C141.365 299.752 140.453 300.364 139.373 300.712C138.305 301.048 136.961 301.216 135.341 301.216ZM135.701 302.548C136.073 302.908 136.439 303.274 136.799 303.646L137.357 304.204L135.701 305.86L134.027 304.204L135.701 302.548ZM159.591 301C158.619 301 157.827 300.604 157.215 299.812C156.915 300.184 156.573 300.472 156.189 300.676C155.805 300.88 155.391 300.988 154.947 301H154.893H154.839C154.287 300.988 153.813 300.85 153.417 300.586C153.021 300.322 152.715 299.944 152.499 299.452C151.851 300.472 151.053 300.988 150.105 301H150.015C149.499 301 149.049 300.862 148.665 300.586C148.281 300.31 148.011 299.944 147.855 299.488C147.471 299.98 147.027 300.358 146.523 300.622C146.031 300.874 145.503 301 144.939 301H144.885L144.741 299.668L144.885 298.318H144.975C145.347 298.318 145.713 298.24 146.073 298.084C146.433 297.916 146.703 297.712 146.883 297.472C147.135 297.184 147.327 296.86 147.459 296.5C147.591 296.14 147.711 295.756 147.819 295.348L149.691 295.546C149.679 295.606 149.613 295.846 149.493 296.266C149.373 296.674 149.313 297.046 149.313 297.382C149.313 298.006 149.565 298.318 150.069 298.318H150.123C150.735 298.318 151.209 297.988 151.545 297.328C151.773 296.872 151.977 296.17 152.157 295.222L154.011 295.312C153.879 296.104 153.813 296.668 153.813 297.004C153.813 297.88 154.179 298.318 154.911 298.318C155.187 298.318 155.451 298.264 155.703 298.156C155.967 298.048 156.171 297.91 156.315 297.742C156.207 297.298 156.045 296.488 155.829 295.312L157.683 294.808C157.815 295.576 157.923 296.158 158.007 296.554C158.103 296.95 158.187 297.262 158.259 297.49C158.355 297.766 158.505 297.976 158.709 298.12C158.925 298.252 159.219 298.318 159.591 298.318H159.699L159.825 299.668L159.681 301H159.591ZM159.708 298.318H160.32C161.34 298.318 162.186 298.24 162.858 298.084C163.53 297.916 163.974 297.694 164.19 297.418C164.094 296.842 163.74 296.158 163.128 295.366C162.516 294.574 161.616 293.698 160.428 292.738L160.68 290.398L167.358 287.59L168.078 289.732L162.876 291.946C163.272 292.282 163.722 292.744 164.226 293.332C164.742 293.908 165.198 294.562 165.594 295.294C166.002 296.026 166.206 296.734 166.206 297.418C166.206 297.622 166.176 297.856 166.116 298.12C165.876 299.092 165.24 299.818 164.208 300.298C163.176 300.766 161.88 301 160.32 301H159.708V298.318Z" fill="black"/>
<path d="M43.39 594.202C42.31 594.202 41.344 593.998 40.492 593.59C39.64 593.182 38.968 592.582 38.476 591.79C37.984 590.998 37.738 590.044 37.738 588.928C37.738 588.196 37.864 587.404 38.116 586.552C38.38 585.688 38.674 584.92 38.998 584.248L40.726 585.04C40.414 585.748 40.174 586.372 40.006 586.912C39.838 587.452 39.754 588.004 39.754 588.568C39.754 589.564 40.066 590.302 40.69 590.782C41.314 591.274 42.214 591.52 43.39 591.52C44.038 591.52 44.65 591.448 45.226 591.304C45.814 591.16 46.312 590.98 46.72 590.764C47.14 590.548 47.428 590.332 47.584 590.116C47.368 589.912 46.912 589.618 46.216 589.234C45.52 588.862 44.8 588.538 44.056 588.262L44.614 585.742C45.658 585.946 46.564 586.096 47.332 586.192C48.1 586.276 48.856 586.318 49.6 586.318H49.87L50.014 587.668L49.87 589H49.6C49.42 589 49.15 588.988 48.79 588.964C49.234 589.408 49.456 589.84 49.456 590.26C49.456 590.86 49.186 591.466 48.646 592.078C48.106 592.69 47.368 593.194 46.432 593.59C45.508 593.998 44.494 594.202 43.39 594.202ZM49.8175 586.318H50.0695C50.6335 586.318 51.0895 586.198 51.4375 585.958C51.7855 585.706 52.0615 585.322 52.2655 584.806C52.4695 584.278 52.6315 583.57 52.7515 582.682L54.6235 583.078C54.5515 583.522 54.5155 583.93 54.5155 584.302C54.5155 585.046 54.6835 585.61 55.0195 585.994C55.9195 584.386 56.9275 583.132 58.0435 582.232C59.1595 581.332 60.2755 580.882 61.3915 580.882C62.0755 580.882 62.6875 581.032 63.2275 581.332C63.7795 581.62 64.2115 582.028 64.5235 582.556C64.8355 583.072 64.9915 583.66 64.9915 584.32C64.9915 585.34 64.6855 586.234 64.0735 587.002C63.4615 587.77 62.6095 588.358 61.5175 588.766C60.4255 589.174 59.1835 589.378 57.7915 589.378C55.5835 589.378 54.1075 588.67 53.3635 587.254C53.0035 587.83 52.5595 588.268 52.0315 588.568C51.5035 588.856 50.8495 589 50.0695 589H49.8175V586.318ZM56.7835 586.714C57.0235 586.738 57.2095 586.75 57.3415 586.75C58.4455 586.774 59.4355 586.672 60.3115 586.444C61.1995 586.216 61.8895 585.916 62.3815 585.544C62.8735 585.16 63.1195 584.788 63.1195 584.428C63.1195 584.14 62.9815 583.9 62.7055 583.708C62.4415 583.504 62.0695 583.402 61.5895 583.402C60.7975 583.402 59.9815 583.69 59.1415 584.266C58.3015 584.842 57.5155 585.658 56.7835 586.714ZM70.9315 589C69.6115 589 68.6575 588.622 68.0695 587.866C67.4935 587.11 67.2055 585.958 67.2055 584.41C67.1935 582.934 67.1455 581.44 67.0615 579.928C66.9895 578.404 66.8815 577.15 66.7375 576.166L68.9695 575.68C69.0895 576.556 69.1855 577.744 69.2575 579.244C69.3295 580.732 69.3655 582.112 69.3655 583.384V584.068C69.3535 584.68 69.3835 585.142 69.4555 585.454C69.5275 585.766 69.6715 585.988 69.8875 586.12C70.1155 586.252 70.4635 586.318 70.9315 586.318H71.0215L71.1655 587.668L71.0215 589H70.9315ZM86.8677 589C85.7037 589 84.8337 588.988 84.2577 588.964C83.6817 588.928 83.1837 588.856 82.7637 588.748C81.6837 589.168 80.4297 589.378 79.0017 589.378C76.7937 589.378 75.3177 588.67 74.5737 587.254C74.2137 587.83 73.7697 588.268 73.2417 588.568C72.7137 588.856 72.0597 589 71.2797 589H71.0277V586.318H71.2797C71.8437 586.318 72.2997 586.198 72.6477 585.958C72.9957 585.706 73.2717 585.322 73.4757 584.806C73.6797 584.278 73.8417 583.57 73.9617 582.682L75.8337 583.078C75.7617 583.522 75.7257 583.93 75.7257 584.302C75.7257 585.046 75.8937 585.61 76.2297 585.994C77.1297 584.386 78.1377 583.132 79.2537 582.232C80.3697 581.332 81.4857 580.882 82.6017 580.882C83.2857 580.882 83.8977 581.032 84.4377 581.332C84.9897 581.62 85.4217 582.028 85.7337 582.556C86.0457 583.072 86.2017 583.66 86.2017 584.32C86.2017 585.04 86.0337 585.718 85.6977 586.354C86.2257 586.33 86.6217 586.318 86.8857 586.318H86.9577L87.1017 587.668L86.9577 589H86.8677ZM77.9937 586.714C78.2337 586.738 78.4197 586.75 78.5517 586.75C79.6557 586.774 80.6457 586.672 81.5217 586.444C82.4097 586.216 83.0997 585.916 83.5917 585.544C84.0837 585.16 84.3297 584.788 84.3297 584.428C84.3297 584.14 84.1917 583.9 83.9157 583.708C83.6517 583.504 83.2797 583.402 82.7997 583.402C82.0077 583.402 81.1917 583.69 80.3517 584.266C79.5117 584.842 78.7257 585.658 77.9937 586.714ZM86.9946 586.318H87.1206C88.2006 586.318 89.0046 586.264 89.5326 586.156C90.0606 586.036 90.4086 585.862 90.5766 585.634C90.7446 585.406 90.8286 585.076 90.8286 584.644C90.8286 584.296 90.7686 583.726 90.6486 582.934L92.5026 582.574C92.6706 583.45 92.7546 584.44 92.7546 585.544C92.8026 585.748 92.9346 585.928 93.1506 586.084C93.3666 586.24 93.6786 586.318 94.0866 586.318H94.1946L94.3386 587.668L94.1946 589H94.0866C93.6066 589 93.1626 588.886 92.7546 588.658C92.3466 588.43 91.9986 588.13 91.7106 587.758C91.3626 588.202 90.8346 588.52 90.1266 588.712C89.4186 588.904 88.4166 589 87.1206 589H86.9946V586.318ZM88.4166 578.272L89.9286 579.784L88.4166 581.314L87.9126 580.81L86.8866 579.784L88.4166 578.272ZM91.5846 578.272L93.0966 579.784L91.5846 581.314L91.0806 580.81L90.0546 579.784L91.5846 578.272ZM94.1892 586.318H95.5392C96.8952 586.318 98.1672 586.18 99.3552 585.904C100.543 585.616 101.797 585.136 103.117 584.464C102.793 584.332 102.367 584.134 101.839 583.87C100.783 583.33 99.8652 583.06 99.0852 583.06C98.6292 583.06 98.2212 583.186 97.8612 583.438C97.5132 583.678 97.2432 583.954 97.0512 584.266L95.5392 583.168C96.4512 581.38 97.6572 580.486 99.1572 580.486C99.6612 580.486 100.147 580.57 100.615 580.738C101.083 580.906 101.767 581.218 102.667 581.674C103.363 582.034 103.951 582.31 104.431 582.502C104.923 582.694 105.463 582.85 106.051 582.97L106.141 585.382C105.817 585.478 105.181 585.784 104.233 586.3C104.161 586.348 104.095 586.39 104.035 586.426C103.975 586.45 103.921 586.474 103.873 586.498C102.685 587.122 101.653 587.608 100.777 587.956C99.9012 588.304 99.0072 588.568 98.0952 588.748C97.1832 588.916 96.1512 589 94.9992 589H94.1892V586.318ZM99.3912 575.932C99.7632 576.292 100.129 576.658 100.489 577.03L101.047 577.588L99.3912 579.244L97.7172 577.588L99.3912 575.932ZM108.041 588.892C108.161 588.1 108.221 586.876 108.221 585.22C108.221 583.564 108.167 581.83 108.059 580.018C107.963 578.194 107.849 576.916 107.717 576.184L109.967 575.662C110.075 576.358 110.171 577.576 110.255 579.316C110.339 581.056 110.381 582.766 110.381 584.446C110.381 586.522 110.309 588.082 110.165 589.126L108.041 588.892ZM122.662 589C122.278 589 121.924 588.928 121.6 588.784C121.528 589.912 121.036 590.95 120.124 591.898C119.212 592.858 118.006 593.644 116.506 594.256L115.408 591.988C116.2 591.664 116.926 591.286 117.586 590.854C118.246 590.434 118.762 590.014 119.134 589.594C119.518 589.174 119.71 588.814 119.71 588.514C119.71 588.022 119.392 586.684 118.756 584.5L118.666 584.14L120.682 583.348C120.814 583.72 120.97 584.254 121.15 584.95C121.306 585.442 121.498 585.796 121.726 586.012C121.966 586.216 122.278 586.318 122.662 586.318H122.824L122.968 587.668L122.824 589H122.662ZM119.368 578.398C119.74 578.758 120.106 579.124 120.466 579.496L121.024 580.054L119.368 581.71L117.694 580.054L119.368 578.398ZM122.756 587.668L122.9 586.318H124.412C125.6 586.318 126.44 586.216 126.932 586.012C127.424 585.808 127.67 585.496 127.67 585.076C127.658 584.812 127.52 584.308 127.256 583.564C126.992 582.808 126.8 582.304 126.68 582.052L128.588 581.008C128.828 581.512 129.068 582.184 129.308 583.024C129.548 583.852 129.668 584.578 129.668 585.202C129.656 586.426 129.242 587.368 128.426 588.028C127.61 588.676 126.404 589 124.808 589H122.9L122.756 587.668ZM124.412 590.512L124.916 591.016L125.942 592.042L124.412 593.554L122.9 592.042L124.412 590.512ZM127.58 590.512L128.084 591.016L129.11 592.042L127.58 593.554L126.068 592.042L127.58 590.512ZM131.758 588.892C131.878 588.1 131.938 586.876 131.938 585.22C131.938 583.564 131.884 581.83 131.776 580.018C131.68 578.194 131.566 576.916 131.434 576.184L133.684 575.662C133.792 576.358 133.888 577.576 133.972 579.316C134.056 581.056 134.098 582.766 134.098 584.446C134.098 586.522 134.026 588.082 133.882 589.126L131.758 588.892ZM135.846 591.934C137.49 591.574 138.768 591.16 139.68 590.692C140.592 590.236 141.192 589.678 141.48 589.018C140.16 588.994 139.092 588.862 138.276 588.622C137.46 588.37 136.89 587.896 136.566 587.2C136.35 586.732 136.242 586.216 136.242 585.652C136.242 584.944 136.392 584.242 136.692 583.546C136.992 582.838 137.406 582.262 137.934 581.818C138.462 581.362 139.038 581.134 139.662 581.134C140.286 581.134 140.862 581.368 141.39 581.836C141.918 582.304 142.356 582.934 142.704 583.726C143.064 584.518 143.304 585.382 143.424 586.318H144.18L144.324 587.668L144.18 589H143.37C143.07 590.332 142.338 591.454 141.174 592.366C140.022 593.278 138.522 593.908 136.674 594.256L135.846 591.934ZM138.222 585.688C138.39 585.916 138.756 586.078 139.32 586.174C139.884 586.258 140.616 586.306 141.516 586.318C141.348 585.526 141.078 584.866 140.706 584.338C140.334 583.798 139.914 583.528 139.446 583.528C139.206 583.528 138.978 583.618 138.762 583.798C138.558 583.966 138.396 584.182 138.276 584.446C138.156 584.71 138.096 584.962 138.096 585.202C138.096 585.406 138.138 585.568 138.222 585.688ZM144.132 586.318H145.482C146.838 586.318 148.11 586.18 149.298 585.904C150.486 585.616 151.74 585.136 153.06 584.464C152.736 584.332 152.31 584.134 151.782 583.87C150.726 583.33 149.808 583.06 149.028 583.06C148.572 583.06 148.164 583.186 147.804 583.438C147.456 583.678 147.186 583.954 146.994 584.266L145.482 583.168C146.394 581.38 147.6 580.486 149.1 580.486C149.604 580.486 150.09 580.57 150.558 580.738C151.026 580.906 151.71 581.218 152.61 581.674C153.306 582.034 153.894 582.31 154.374 582.502C154.866 582.694 155.406 582.85 155.994 582.97L156.084 585.382C155.76 585.478 155.124 585.784 154.176 586.3C154.104 586.348 154.038 586.39 153.978 586.426C153.918 586.45 153.864 586.474 153.816 586.498C152.628 587.122 151.596 587.608 150.72 587.956C149.844 588.304 148.95 588.568 148.038 588.748C147.126 588.916 146.094 589 144.942 589H144.132V586.318ZM150.252 590.368C150.624 590.728 150.99 591.094 151.35 591.466L151.908 592.024L150.252 593.68L148.578 592.024L150.252 590.368ZM168.426 589.216C166.302 589.216 164.634 588.886 163.422 588.226C162.21 587.566 161.55 586.648 161.442 585.472C161.43 585.376 161.424 585.232 161.424 585.04C161.424 584.524 161.496 583.966 161.64 583.366C161.784 582.766 161.958 582.232 162.162 581.764L163.89 582.592C163.542 583.684 163.386 584.47 163.422 584.95C163.506 585.406 163.986 585.784 164.862 586.084C165.738 586.372 166.938 586.522 168.462 586.534C170.01 586.522 171.21 586.42 172.062 586.228C172.926 586.024 173.58 585.7 174.024 585.256C174.48 584.812 174.864 584.17 175.176 583.33L177.048 583.546C176.82 584.218 176.706 584.764 176.706 585.184C176.706 585.94 177.102 586.318 177.894 586.318L178.038 587.65L177.894 589C177.222 589 176.628 588.802 176.112 588.406C175.608 588.01 175.302 587.5 175.194 586.876C174.45 587.752 173.538 588.364 172.458 588.712C171.39 589.048 170.046 589.216 168.426 589.216ZM167.472 579.91L168.984 581.422L167.472 582.952L166.968 582.448L165.942 581.422L167.472 579.91ZM170.64 579.91L172.152 581.422L170.64 582.952L170.136 582.448L169.11 581.422L170.64 579.91ZM177.917 586.318H178.187C179.615 586.318 180.749 586.252 181.589 586.12C182.441 585.976 183.071 585.724 183.479 585.364C183.143 585.388 182.897 585.4 182.741 585.4C181.877 585.4 181.109 585.25 180.437 584.95C179.777 584.65 179.303 584.212 179.015 583.636C178.799 583.168 178.691 582.652 178.691 582.088C178.691 581.404 178.835 580.738 179.123 580.09C179.411 579.442 179.813 578.914 180.329 578.506C180.845 578.086 181.415 577.876 182.039 577.876C182.747 577.876 183.383 578.158 183.947 578.722C184.511 579.274 184.949 580.006 185.261 580.918C185.585 581.83 185.747 582.796 185.747 583.816C185.747 585.472 185.123 586.75 183.875 587.65C182.639 588.55 180.731 589 178.151 589H177.917V586.318ZM180.617 582.16C180.797 582.388 181.121 582.574 181.589 582.718C182.057 582.85 182.585 582.916 183.173 582.916C183.329 582.916 183.563 582.904 183.875 582.88C183.719 582.112 183.455 581.47 183.083 580.954C182.711 580.426 182.297 580.162 181.841 580.162C181.469 580.162 181.151 580.33 180.887 580.666C180.623 580.99 180.491 581.332 180.491 581.692C180.491 581.884 180.533 582.04 180.617 582.16ZM181.697 573.43C182.069 573.79 182.435 574.156 182.795 574.528L183.353 575.086L181.697 576.742L180.023 575.086L181.697 573.43ZM191.7 589C190.38 589 189.426 588.622 188.838 587.866C188.262 587.11 187.974 585.958 187.974 584.41C187.962 582.934 187.914 581.44 187.83 579.928C187.758 578.404 187.65 577.15 187.506 576.166L189.738 575.68C189.858 576.556 189.954 577.744 190.026 579.244C190.098 580.732 190.134 582.112 190.134 583.384V584.068C190.122 584.68 190.152 585.142 190.224 585.454C190.296 585.766 190.44 585.988 190.656 586.12C190.884 586.252 191.232 586.318 191.7 586.318H191.79L191.934 587.668L191.79 589H191.7ZM191.815 586.318H192.679C193.867 586.318 194.707 586.216 195.199 586.012C195.691 585.808 195.937 585.496 195.937 585.076C195.925 584.812 195.787 584.308 195.523 583.564C195.259 582.808 195.067 582.304 194.947 582.052L196.855 581.008C197.095 581.512 197.335 582.184 197.575 583.024C197.815 583.852 197.935 584.578 197.935 585.202C197.923 586.426 197.509 587.368 196.693 588.028C195.877 588.676 194.671 589 193.075 589H191.815V586.318ZM195.163 593.572L193.651 592.06L195.163 590.53L195.667 591.034L196.693 592.06L195.163 593.572ZM191.995 590.53L192.499 591.034L193.525 592.06L191.995 593.572L190.483 592.06L191.995 590.53ZM197.834 591.988C198.626 591.664 199.352 591.286 200.012 590.854C200.672 590.434 201.188 590.014 201.56 589.594C201.944 589.174 202.136 588.814 202.136 588.514C202.136 588.022 201.818 586.684 201.182 584.5L201.092 584.14L203.108 583.348C203.396 584.176 203.624 585.064 203.792 586.012C203.96 586.948 204.044 587.782 204.044 588.514C204.044 589.69 203.582 590.776 202.658 591.772C201.734 592.78 200.492 593.608 198.932 594.256L197.834 591.988ZM209.638 589.09C208.594 589.09 207.724 588.934 207.028 588.622C206.332 588.298 205.792 587.974 205.408 587.65L206.38 585.76C206.812 585.976 207.256 586.162 207.712 586.318C208.168 586.474 208.726 586.552 209.386 586.552C210.034 586.54 210.562 586.468 210.97 586.336C211.39 586.192 211.666 586.036 211.798 585.868C211.81 585.844 211.816 585.796 211.816 585.724C211.816 585.472 211.702 585.142 211.474 584.734C211.258 584.314 210.868 583.822 210.304 583.258C209.752 582.682 209.008 582.076 208.072 581.44L209.368 579.082C210.76 580.066 211.858 581.14 212.662 582.304C213.478 583.468 213.886 584.578 213.886 585.634C213.886 586.138 213.79 586.6 213.598 587.02C213.31 587.692 212.8 588.208 212.068 588.568C211.336 588.916 210.526 589.09 209.638 589.09Z" fill="black"/>
<circle opacity="0.4" cx="32" cy="32" r="32" transform="matrix(-1 0 0 1 163 0)" fill="#EBE5D5"/>
<rect x="107" y="9" width="47.0894" height="47.0894" rx="23.5447" fill="url(#paint4_radial_3499_3109)"/>
<path d="M124.319 26.6589C125.902 25.0445 128.107 24.0428 130.546 24.0428C132.986 24.0428 135.191 25.0445 136.774 26.6589M134.446 29.275C133.488 28.2046 132.096 27.5309 130.546 27.5309C128.997 27.5309 127.605 28.2046 126.647 29.275M130.546 36.2512C131.864 36.2512 133.128 36.4758 134.304 36.8889C134.343 36.9026 134.363 36.9095 134.394 36.9231C134.673 37.0463 134.888 37.3492 134.912 37.6538C134.914 37.6874 134.914 37.7172 134.914 37.7767C134.914 37.9797 134.914 38.0811 134.923 38.1666C135.004 38.9943 135.659 39.6491 136.487 39.7309C136.572 39.7393 136.674 39.7393 136.877 39.7393H137.09C137.492 39.7393 137.693 39.7393 137.86 39.7064C138.554 39.5695 139.097 39.0268 139.234 38.3325C139.267 38.1655 139.267 37.9647 139.267 37.5631V37.3903C139.267 36.9758 139.267 36.7686 139.222 36.5311C139.123 35.9999 138.738 35.3428 138.322 34.9976C138.136 34.8433 138.01 34.7729 137.758 34.6323C135.623 33.4416 133.164 32.7631 130.546 32.7631C127.929 32.7631 125.469 33.4416 123.335 34.6323C123.083 34.7729 122.957 34.8433 122.771 34.9976C122.355 35.3428 121.969 35.9999 121.87 36.5311C121.826 36.7686 121.826 36.9758 121.826 37.3903V37.5631C121.826 37.9647 121.826 38.1655 121.859 38.3325C121.996 39.0268 122.539 39.5695 123.233 39.7064C123.4 39.7393 123.601 39.7393 124.002 39.7393H124.216C124.419 39.7393 124.52 39.7393 124.606 39.7309C125.434 39.6491 126.088 38.9943 126.17 38.1666C126.179 38.0811 126.179 37.9797 126.179 37.7767C126.179 37.7172 126.179 37.6874 126.181 37.6538C126.205 37.3492 126.419 37.0463 126.699 36.9231C126.73 36.9095 126.749 36.9026 126.789 36.8889C127.965 36.4758 129.229 36.2512 130.546 36.2512Z" stroke="white" stroke-width="1.17264" stroke-linecap="round" stroke-linejoin="round"/>
<path d="M123.679 39.7391C122.632 39.7391 121.935 38.8671 121.717 38.4311L122.044 35.815L124.006 34.18L126.949 33.1989L130.219 32.5449L134.143 33.1989L138.067 34.507L139.048 35.815L139.375 38.1041L138.721 39.4121L137.413 39.7391H136.105L135.124 39.0851L134.797 37.123C134.034 36.905 132.116 36.4036 130.546 36.142C128.976 35.8804 127.058 36.687 126.295 37.123C126.404 37.232 126.557 37.6463 126.295 38.4311C125.968 39.4121 124.987 39.7391 123.679 39.7391Z" fill="white"/>
<circle opacity="0.4" cx="32" cy="32" r="32" transform="matrix(-1 0 0 1 163 0)" fill="#EBE5D5"/>
<rect x="107" y="9" width="47.0894" height="47.0894" rx="23.5447" fill="url(#paint5_radial_3499_3109)"/>
<path d="M124.319 26.6589C125.902 25.0445 128.107 24.0428 130.546 24.0428C132.986 24.0428 135.191 25.0445 136.774 26.6589M134.446 29.275C133.488 28.2046 132.096 27.5309 130.546 27.5309C128.997 27.5309 127.605 28.2046 126.647 29.275M130.546 36.2512C131.864 36.2512 133.128 36.4758 134.304 36.8889C134.343 36.9026 134.363 36.9095 134.394 36.9231C134.673 37.0463 134.888 37.3492 134.912 37.6538C134.914 37.6874 134.914 37.7172 134.914 37.7767C134.914 37.9797 134.914 38.0811 134.923 38.1666C135.004 38.9943 135.659 39.6491 136.487 39.7309C136.572 39.7393 136.674 39.7393 136.877 39.7393H137.09C137.492 39.7393 137.693 39.7393 137.86 39.7064C138.554 39.5695 139.097 39.0268 139.234 38.3325C139.267 38.1655 139.267 37.9647 139.267 37.5631V37.3903C139.267 36.9758 139.267 36.7686 139.222 36.5311C139.123 35.9999 138.738 35.3428 138.322 34.9976C138.136 34.8433 138.01 34.7729 137.758 34.6323C135.623 33.4416 133.164 32.7631 130.546 32.7631C127.929 32.7631 125.469 33.4416 123.335 34.6323C123.083 34.7729 122.957 34.8433 122.771 34.9976C122.355 35.3428 121.969 35.9999 121.87 36.5311C121.826 36.7686 121.826 36.9758 121.826 37.3903V37.5631C121.826 37.9647 121.826 38.1655 121.859 38.3325C121.996 39.0268 122.539 39.5695 123.233 39.7064C123.4 39.7393 123.601 39.7393 124.002 39.7393H124.216C124.419 39.7393 124.52 39.7393 124.606 39.7309C125.434 39.6491 126.088 38.9943 126.17 38.1666C126.179 38.0811 126.179 37.9797 126.179 37.7767C126.179 37.7172 126.179 37.6874 126.181 37.6538C126.205 37.3492 126.419 37.0463 126.699 36.9231C126.73 36.9095 126.749 36.9026 126.789 36.8889C127.965 36.4758 129.229 36.2512 130.546 36.2512Z" stroke="white" stroke-width="1.17264" stroke-linecap="round" stroke-linejoin="round"/>
<path d="M123.679 39.7391C122.632 39.7391 121.935 38.8671 121.717 38.4311L122.044 35.815L124.006 34.18L126.949 33.1989L130.219 32.5449L134.143 33.1989L138.067 34.507L139.048 35.815L139.375 38.1041L138.721 39.4121L137.413 39.7391H136.105L135.124 39.0851L134.797 37.123C134.034 36.905 132.116 36.4036 130.546 36.142C128.976 35.8804 127.058 36.687 126.295 37.123C126.404 37.232 126.557 37.6463 126.295 38.4311C125.968 39.4121 124.987 39.7391 123.679 39.7391Z" fill="white"/>
<circle opacity="0.4" cx="32" cy="32" r="32" transform="matrix(-1 0 0 1 164 673)" fill="#EBE5D5"/>
<rect x="108" y="682" width="47.0894" height="47.0894" rx="23.5447" fill="url(#paint6_radial_3499_3109)"/>
<path d="M125.319 699.659C126.902 698.044 129.107 697.043 131.546 697.043C133.986 697.043 136.191 698.044 137.774 699.659M135.446 702.275C134.488 701.205 133.096 700.531 131.546 700.531C129.997 700.531 128.605 701.205 127.647 702.275M131.546 709.251C132.864 709.251 134.128 709.476 135.304 709.889C135.343 709.903 135.363 709.91 135.394 709.923C135.673 710.046 135.888 710.349 135.912 710.654C135.914 710.687 135.914 710.717 135.914 710.777C135.914 710.98 135.914 711.081 135.923 711.167C136.004 711.994 136.659 712.649 137.487 712.731C137.572 712.739 137.674 712.739 137.877 712.739H138.09C138.492 712.739 138.693 712.739 138.86 712.706C139.554 712.57 140.097 712.027 140.234 711.333C140.267 711.166 140.267 710.965 140.267 710.563V710.39C140.267 709.976 140.267 709.769 140.222 709.531C140.123 709 139.738 708.343 139.322 707.998C139.136 707.843 139.01 707.773 138.758 707.632C136.623 706.442 134.164 705.763 131.546 705.763C128.929 705.763 126.469 706.442 124.335 707.632C124.083 707.773 123.957 707.843 123.771 707.998C123.355 708.343 122.969 709 122.87 709.531C122.826 709.769 122.826 709.976 122.826 710.39V710.563C122.826 710.965 122.826 711.166 122.859 711.333C122.996 712.027 123.539 712.57 124.233 712.706C124.4 712.739 124.601 712.739 125.002 712.739H125.216C125.419 712.739 125.52 712.739 125.606 712.731C126.434 712.649 127.088 711.994 127.17 711.167C127.179 711.081 127.179 710.98 127.179 710.777C127.179 710.717 127.179 710.687 127.181 710.654C127.205 710.349 127.419 710.046 127.699 709.923C127.73 709.91 127.749 709.903 127.789 709.889C128.965 709.476 130.229 709.251 131.546 709.251Z" stroke="white" stroke-width="1.17264" stroke-linecap="round" stroke-linejoin="round"/>
<path d="M124.679 712.739C123.632 712.739 122.935 711.867 122.717 711.431L123.044 708.815L125.006 707.18L127.949 706.199L131.219 705.545L135.143 706.199L139.067 707.507L140.048 708.815L140.375 711.104L139.721 712.412L138.413 712.739H137.105L136.124 712.085L135.797 710.123C135.034 709.905 133.116 709.404 131.546 709.142C129.976 708.88 128.058 709.687 127.295 710.123C127.404 710.232 127.557 710.646 127.295 711.431C126.968 712.412 125.987 712.739 124.679 712.739Z" fill="white"/>
<circle opacity="0.4" cx="32" cy="32" r="32" transform="matrix(-1 0 0 1 164 673)" fill="#EBE5D5"/>
<rect x="108" y="682" width="47.0894" height="47.0894" rx="23.5447" fill="url(#paint7_radial_3499_3109)"/>
<path d="M125.319 699.659C126.902 698.044 129.107 697.043 131.546 697.043C133.986 697.043 136.191 698.044 137.774 699.659M135.446 702.275C134.488 701.205 133.096 700.531 131.546 700.531C129.997 700.531 128.605 701.205 127.647 702.275M131.546 709.251C132.864 709.251 134.128 709.476 135.304 709.889C135.343 709.903 135.363 709.91 135.394 709.923C135.673 710.046 135.888 710.349 135.912 710.654C135.914 710.687 135.914 710.717 135.914 710.777C135.914 710.98 135.914 711.081 135.923 711.167C136.004 711.994 136.659 712.649 137.487 712.731C137.572 712.739 137.674 712.739 137.877 712.739H138.09C138.492 712.739 138.693 712.739 138.86 712.706C139.554 712.57 140.097 712.027 140.234 711.333C140.267 711.166 140.267 710.965 140.267 710.563V710.39C140.267 709.976 140.267 709.769 140.222 709.531C140.123 709 139.738 708.343 139.322 707.998C139.136 707.843 139.01 707.773 138.758 707.632C136.623 706.442 134.164 705.763 131.546 705.763C128.929 705.763 126.469 706.442 124.335 707.632C124.083 707.773 123.957 707.843 123.771 707.998C123.355 708.343 122.969 709 122.87 709.531C122.826 709.769 122.826 709.976 122.826 710.39V710.563C122.826 710.965 122.826 711.166 122.859 711.333C122.996 712.027 123.539 712.57 124.233 712.706C124.4 712.739 124.601 712.739 125.002 712.739H125.216C125.419 712.739 125.52 712.739 125.606 712.731C126.434 712.649 127.088 711.994 127.17 711.167C127.179 711.081 127.179 710.98 127.179 710.777C127.179 710.717 127.179 710.687 127.181 710.654C127.205 710.349 127.419 710.046 127.699 709.923C127.73 709.91 127.749 709.903 127.789 709.889C128.965 709.476 130.229 709.251 131.546 709.251Z" stroke="white" stroke-width="1.17264" stroke-linecap="round" stroke-linejoin="round"/>
<path d="M124.679 712.739C123.632 712.739 122.935 711.867 122.717 711.431L123.044 708.815L125.006 707.18L127.949 706.199L131.219 705.545L135.143 706.199L139.067 707.507L140.048 708.815L140.375 711.104L139.721 712.412L138.413 712.739H137.105L136.124 712.085L135.797 710.123C135.034 709.905 133.116 709.404 131.546 709.142C129.976 708.88 128.058 709.687 127.295 710.123C127.404 710.232 127.557 710.646 127.295 711.431C126.968 712.412 125.987 712.739 124.679 712.739Z" fill="white"/>
<defs>
<filter id="filter0_d_3499_3109" x="0" y="399" width="252" height="87" filterUnits="userSpaceOnUse" color-interpolation-filters="sRGB">
<feFlood flood-opacity="0" result="BackgroundImageFix"/>
<feColorMatrix in="SourceAlpha" type="matrix" values="0 0 0 0 0 0 0 0 0 0 0 0 0 0 0 0 0 0 127 0" result="hardAlpha"/>
<feOffset dy="2"/>
<feGaussianBlur stdDeviation="2.5"/>
<feComposite in2="hardAlpha" operator="out"/>
<feColorMatrix type="matrix" values="0 0 0 0 0 0 0 0 0 0 0 0 0 0 0 0 0 0 0.1 0"/>
<feBlend mode="normal" in2="BackgroundImageFix" result="effect1_dropShadow_3499_3109"/>
<feBlend mode="normal" in="SourceGraphic" in2="effect1_dropShadow_3499_3109" result="shape"/>
</filter>
<filter id="filter1_d_3499_3109" x="0" y="111" width="252" height="87" filterUnits="userSpaceOnUse" color-interpolation-filters="sRGB">
<feFlood flood-opacity="0" result="BackgroundImageFix"/>
<feColorMatrix in="SourceAlpha" type="matrix" values="0 0 0 0 0 0 0 0 0 0 0 0 0 0 0 0 0 0 127 0" result="hardAlpha"/>
<feOffset dy="2"/>
<feGaussianBlur stdDeviation="2.5"/>
<feComposite in2="hardAlpha" operator="out"/>
<feColorMatrix type="matrix" values="0 0 0 0 0 0 0 0 0 0 0 0 0 0 0 0 0 0 0.1 0"/>
<feBlend mode="normal" in2="BackgroundImageFix" result="effect1_dropShadow_3499_3109"/>
<feBlend mode="normal" in="SourceGraphic" in2="effect1_dropShadow_3499_3109" result="shape"/>
</filter>
<filter id="filter2_d_3499_3109" x="0" y="543" width="252" height="87" filterUnits="userSpaceOnUse" color-interpolation-filters="sRGB">
<feFlood flood-opacity="0" result="BackgroundImageFix"/>
<feColorMatrix in="SourceAlpha" type="matrix" values="0 0 0 0 0 0 0 0 0 0 0 0 0 0 0 0 0 0 127 0" result="hardAlpha"/>
<feOffset dy="2"/>
<feGaussianBlur stdDeviation="2.5"/>
<feComposite in2="hardAlpha" operator="out"/>
<feColorMatrix type="matrix" values="0 0 0 0 0 0 0 0 0 0 0 0 0 0 0 0 0 0 0.1 0"/>
<feBlend mode="normal" in2="BackgroundImageFix" result="effect1_dropShadow_3499_3109"/>
<feBlend mode="normal" in="SourceGraphic" in2="effect1_dropShadow_3499_3109" result="shape"/>
</filter>
<filter id="filter3_d_3499_3109" x="0" y="254" width="252" height="87" filterUnits="userSpaceOnUse" color-interpolation-filters="sRGB">
<feFlood flood-opacity="0" result="BackgroundImageFix"/>
<feColorMatrix in="SourceAlpha" type="matrix" values="0 0 0 0 0 0 0 0 0 0 0 0 0 0 0 0 0 0 127 0" result="hardAlpha"/>
<feOffset dy="2"/>
<feGaussianBlur stdDeviation="2.5"/>
<feComposite in2="hardAlpha" operator="out"/>
<feColorMatrix type="matrix" values="0 0 0 0 0 0 0 0 0 0 0 0 0 0 0 0 0 0 0.1 0"/>
<feBlend mode="normal" in2="BackgroundImageFix" result="effect1_dropShadow_3499_3109"/>
<feBlend mode="normal" in="SourceGraphic" in2="effect1_dropShadow_3499_3109" result="shape"/>
</filter>
<linearGradient id="paint0_linear_3499_3109" x1="23.4331" y1="78.4856" x2="277.475" y2="233.42" gradientUnits="userSpaceOnUse">
<stop stop-color="#EAD9AE"/>
<stop offset="0.509615" stop-color="#FEFEFE"/>
<stop offset="1" stop-color="#A3822F"/>
</linearGradient>
<radialGradient id="paint1_radial_3499_3109" cx="0" cy="0" r="1" gradientUnits="userSpaceOnUse" gradientTransform="translate(127.329 234.229) rotate(-72.6223) scale(20.3545)">
<stop stop-color="#F9F4E8"/>
<stop offset="0.586077" stop-color="#D8C48F"/>
<stop offset="1" stop-color="#BCA056"/>
</radialGradient>
<radialGradient id="paint2_radial_3499_3109" cx="0" cy="0" r="1" gradientUnits="userSpaceOnUse" gradientTransform="translate(127.329 378.229) rotate(-72.6223) scale(20.3545)">
<stop stop-color="#F9F4E8"/>
<stop offset="0.586077" stop-color="#D8C48F"/>
<stop offset="1" stop-color="#BCA056"/>
</radialGradient>
<radialGradient id="paint3_radial_3499_3109" cx="0" cy="0" r="1" gradientUnits="userSpaceOnUse" gradientTransform="translate(127.329 522.229) rotate(-72.6223) scale(20.3545)">
<stop stop-color="#F9F4E8"/>
<stop offset="0.586077" stop-color="#D8C48F"/>
<stop offset="1" stop-color="#BCA056"/>
</radialGradient>
<radialGradient id="paint4_radial_3499_3109" cx="0" cy="0" r="1" gradientUnits="userSpaceOnUse" gradientTransform="translate(112.571 9) rotate(36.3606) scale(66.4435 68.1241)">
<stop stop-color="white"/>
<stop offset="0.253074" stop-color="#F6F0DF"/>
<stop offset="0.556883" stop-color="#D6C18B"/>
<stop offset="1" stop-color="#C1A664"/>
</radialGradient>
<radialGradient id="paint5_radial_3499_3109" cx="0" cy="0" r="1" gradientUnits="userSpaceOnUse" gradientTransform="translate(112.571 9) rotate(36.3606) scale(66.4435 68.1241)">
<stop stop-color="white"/>
<stop offset="0.253074" stop-color="#F6F0DF"/>
<stop offset="0.556883" stop-color="#D6C18B"/>
<stop offset="1" stop-color="#C1A664"/>
</radialGradient>
<radialGradient id="paint6_radial_3499_3109" cx="0" cy="0" r="1" gradientUnits="userSpaceOnUse" gradientTransform="translate(113.571 682) rotate(36.3606) scale(66.4435 68.1241)">
<stop stop-color="white"/>
<stop offset="0.253074" stop-color="#F6F0DF"/>
<stop offset="0.556883" stop-color="#D6C18B"/>
<stop offset="1" stop-color="#C1A664"/>
</radialGradient>
<radialGradient id="paint7_radial_3499_3109" cx="0" cy="0" r="1" gradientUnits="userSpaceOnUse" gradientTransform="translate(113.571 682) rotate(36.3606) scale(66.4435 68.1241)">
<stop stop-color="white"/>
<stop offset="0.253074" stop-color="#F6F0DF"/>
<stop offset="0.556883" stop-color="#D6C18B"/>
<stop offset="1" stop-color="#C1A664"/>
</radialGradient>
</defs>
</svg>
